<?xml version="1.0" encoding="utf-8"?>
<!-- Generator: Adobe Illustrator 19.0.0, SVG Export Plug-In . SVG Version: 6.00 Build 0)  -->
<svg version="1.1" id="layer" xmlns="http://www.w3.org/2000/svg" xmlns:xlink="http://www.w3.org/1999/xlink" x="0px" y="0px"
	 viewBox="-153 -46 652 652" style="enable-background:new -153 -46 652 652;" xml:space="preserve">
<style type="text/css">
	.st0{fill:#24408E;}
</style>
<path id="XMLID_1_" class="st0" d="M-131.2,332.2V100.6h56.4v180.5h66.1v51.2H-131.2z M68.6,332.2v-129l86.4,129h49.9V100.6h-56.7
	v128.7L63,100.6H11.9v231.7H68.6z M468.7,217.2c0-4.9-0.3-10.1-0.7-15.3h-132v46.3h66.1c-11.4,20.2-30.6,31.3-52.1,31.3
	c-31.9,0-60.6-28.4-60.6-65.2c0-33.2,26.7-60.9,60.6-60.9c18.2,0,33.2,7.5,47.6,22.5h64.5C443.6,126.3,400.3,96,350.7,96
	c-32.9,0-61.6,11.7-84.4,34.2c-22.8,22.5-35.2,51.8-35.2,83.7c0,34.2,11.1,62.9,32.9,86c22.8,24.1,51.8,36.8,86,36.8
	c39.4,0,76.6-19.5,98.7-51.8C462.2,265.4,468.7,243.3,468.7,217.2 M-131.3,452.3h23.7v-96.8h-23.7V452.3z M-68.4,452.3v-53.9
	l36.1,53.9h20.8v-96.8h-23.7v53.8l-35.6-53.8h-21.4v96.8H-68.4z M63.9,403.5c0,19.1-8.6,27.5-26.7,27.5h-9.5v-54.8H37
	C54.5,376.3,63.9,386.1,63.9,403.5 M40.3,452.3c13.6,0,22.8-1.9,33.1-12c9.3-9.1,14-21.3,14-36c0-15.9-4.9-28.6-14.2-37.3
	c-10.1-9.5-20.8-11.6-36.2-11.6H3.9v96.8H40.3z M98.7,355.4V416c0,24.2,13.2,37.7,35.1,37.7c21.7,0,36.1-14,36.1-37.7v-60.6h-23.7
	v59.7c0,11-4,16.5-12.3,16.5c-8,0-11.4-5.6-11.4-16.5v-59.7H98.7z M181.2,420.4v2.2c0,20.7,11.4,31.6,33,31.6
	c18,0,31.9-13.9,31.9-30.8c0-11.6-6.4-20.2-19.6-27c-12.4-6.4-19.5-7.9-19.5-15.1c0-4.2,3.1-7.2,7.5-7.2c5.6,0,8.9,3.4,8.9,9.4H245
	V382c0-17.3-12-28.5-29.4-28.5c-19.6,0-33,12.4-33,29.7c0,11.7,7.4,21.1,21.8,27.6c10.6,4.8,17.3,5.5,17.3,14.3c0,5-3.4,8-9.1,8
	c-5.9,0-8.9-3.8-8.9-11.7v-1.1H181.2z M292.8,452.3v-74.4h18.4v-22.5h-60.1v22.5h18v74.4H292.8z M342,400.1v-23h6.5
	c10.5,0,15.5,3.3,15.5,11.3c0,8.7-5.7,11.7-17.4,11.7H342z M342,452.3v-31.2l18.5,31.2h29.3L366.1,419c13.7-3.8,21.9-15.5,21.9-31.2
	c0-12-4.5-21.1-13.1-27.1c-6.5-4.6-14.3-5.3-24.5-5.3h-32.1v96.8H342z M437.1,452.3v-35.8l28.2-61h-24.8L425.8,391l-14-35.6h-26
	l27.5,61v35.8H437.1z"/>
</svg>
