<svg height="49" viewBox="0 0 226 49" width="226" xmlns="http://www.w3.org/2000/svg"><g fill="none" fill-rule="evenodd" transform="translate(-34 -12)"><path d="m90.2583319 41.2655756v-29.2655756h11.0165501v20.9092731h21.58395v8.3563025zm54.9559831-21.5839495v21.5839495h-11.241601v-21.5839495h-15.364201v-7.6816261h41.968579v7.6816261zm22.106693 21.5839495v-29.2655756h36.160475v7.7191345h-25.330991v3.2599075h24.694298v7.3070168h-24.694298v3.2978908h25.668567v7.681626zm68.5345-18.7361596-1.498911-2.5102143-1.611912 2.5102143-4.795853 7.1574579h12.552496c.037983 0-4.64582-7.1574579-4.64582-7.1574579zm-15.401235 18.7361596h-11.765769l19.784971-29.2651008h12.55297l18.811177 29.2651008h-12.066311l-2.997824-4.6087857h-21.208865zm-130.3540461 19.3078068v-4.5237984h5.3921891v.9728446h-4.2109118v.8052437h4.1121555v.9443571h-4.1121555v.8280336h4.2626639v.9733194zm25.7758701 0-3.492555-3.1454832v3.1454832h-1.169882v-4.5237984h1.251071l3.474513 3.1625757v-3.1625757h1.135222v4.5237984zm17.16318 0v-4.5237984h5.392189v.9728446h-4.210911v.8052437h4.11263v.9443571h-4.11263v.8280336h4.263138v.9733194zm25.695156-3.3881009c-.121546-.1281933-.278227-.1918151-.660433-.1918151h-2.734315v.8688655h2.803634c.370811 0 .52132-.0579243.601559-.1676008.070744-.0987563.087836-.1856429.087836-.2611345 0-.0916344-.023264-.1732983-.098281-.2483151zm1.053559.9377101c-.156206.226-.468618.4871345-.892131.5450588l1.65132 1.905332h-1.349828l-1.534521-1.7728656h-2.323147v1.7728656h-1.18745v-4.5237984h3.927462c.793849 0 1.337484.2027353 1.621883.4980547.185168.1970378.288672.4458277.288672.7990714 0 .3071891-.062672.5801933-.20226.7762815zm21.044588 2.4503908-.02279-.596811c-.313361.2549622-.979492.6661303-2.311277.6661303-1.060681 0-2.07958-.2720546-2.636034-.9381849-.289622-.3532437-.457223-.8166386-.457223-1.3901849 0-.5037521.150509-.9614495.469093-1.3317857.527017-.6257731 1.488466-1.0084538 2.896218-1.0084538 1.581051 0 2.514013.4576975 2.954143 1.2629412.080714.1505084.121546.3071891.144336.4168656h-1.158012c-.017093-.0750168-.122021-.1851681-.214605-.2777521-.243093-.2435673-.805244-.4752647-1.697374-.4752647-.97237 0-1.586273.214605-1.91103.5854159-.19134.2198278-.278227.4923572-.278227.8109412 0 .3181092.098757.5844664.278227.8047689.341849.3765084.979017.5792437 1.842185.5792437.543635 0 1.164185-.1448109 1.534521-.3646387.168076-.1044537.416866-.307189.504227-.4752647h-2.339765v-.9267899h3.474988v2.6588236zm19.99008-1.4770715v1.4770715h-1.193622v-1.4708992l-3.030109-3.0528992h1.431491l2.218693 2.2186933 2.218694-2.2243907h1.384012zm-142.7655297-36.5668949-4.7963278 7.1574579 10.4724412-3.7114327-4.0646765-5.9562395zm15.1904285.074542 13.0253866-4.6163824-40.5067017 23.278h-11.7662437l19.7854454-29.2651008h12.5529706zm-5.8983151 9.5005462 8.6221849-4.9558571 9.1781638 14.1169285h-12.0663109z" fill="#0067b4"/><path d="m0 0h285v71h-285z" fill="#d8d8d8" opacity="0"/></g></svg>